<svg xmlns="http://www.w3.org/2000/svg" viewBox="0 0 298.48 53.37"><title>divider</title><g id="e6abe004-098d-4af9-895d-13e7d18ade44" data-name="OBJECTS"><path d="M142.15,27.72l6.69,3.67a.81.81,0,0,0,.8,0l6.69-3.67a1.24,1.24,0,0,0,0-2.07L149.64,22a.81.81,0,0,0-.8,0l-6.69,3.67A1.24,1.24,0,0,0,142.15,27.72Z"/><path d="M76.6,27.09l2.63,1.44a.34.34,0,0,0,.31,0l2.62-1.44a.49.49,0,0,0,0-.81l-2.62-1.44a.34.34,0,0,0-.31,0L76.6,26.28A.49.49,0,0,0,76.6,27.09Z"/><path d="M84,27.09l2.62,1.44a.36.36,0,0,0,.32,0l2.62-1.44a.49.49,0,0,0,0-.81L87,24.84a.36.36,0,0,0-.32,0L84,26.28A.49.49,0,0,0,84,27.09Z"/><path d="M91.42,27.09,94,28.53a.36.36,0,0,0,.32,0L97,27.09a.49.49,0,0,0,0-.81l-2.62-1.44a.36.36,0,0,0-.32,0l-2.62,1.44A.49.49,0,0,0,91.42,27.09Z"/><path d="M100.26,26.69c6.4-.58,12.8-.72,19.2-.74s12.8.15,19.2.74c-6.4.58-12.8.71-19.2.73S106.66,27.26,100.26,26.69Z"/><path d="M27.08,26.69c7.8-.58,15.6-.72,23.4-.74s15.6.15,23.4.74c-7.8.58-15.6.71-23.4.73S34.88,27.26,27.08,26.69Z"/><path d="M25.23,26.69a1.34,1.34,0,0,1,1.34-1.35c.75,0,3.54.6,3.54,1.35S27.32,28,26.57,28A1.34,1.34,0,0,1,25.23,26.69Z"/><path d="M221.88,27.09l-2.63,1.44a.34.34,0,0,1-.31,0l-2.62-1.44a.49.49,0,0,1,0-.81l2.62-1.44a.34.34,0,0,1,.31,0l2.63,1.44A.49.49,0,0,1,221.88,27.09Z"/><path d="M214.47,27.09l-2.62,1.44a.36.36,0,0,1-.32,0l-2.62-1.44a.49.49,0,0,1,0-.81l2.62-1.44a.36.36,0,0,1,.32,0l2.62,1.44A.49.49,0,0,1,214.47,27.09Z"/><path d="M207.06,27.09l-2.62,1.44a.36.36,0,0,1-.32,0l-2.62-1.44a.49.49,0,0,1,0-.81l2.62-1.44a.36.36,0,0,1,.32,0l2.62,1.44A.49.49,0,0,1,207.06,27.09Z"/><path d="M198.22,26.69c-6.4.57-12.8.71-19.2.73s-12.8-.15-19.2-.73c6.4-.59,12.8-.72,19.2-.74S191.82,26.11,198.22,26.69Z"/><path d="M271.4,26.69c-7.8.57-15.6.71-23.4.73s-15.6-.15-23.4-.73c7.8-.59,15.6-.72,23.4-.74S263.6,26.11,271.4,26.69Z"/><path d="M273.25,26.69a1.34,1.34,0,0,0-1.34-1.35c-.75,0-3.54.6-3.54,1.35S271.16,28,271.91,28A1.34,1.34,0,0,0,273.25,26.69Z"/></g></svg>